<svg viewBox="0 0 750 1000" xmlns="http://www.w3.org/2000/svg"><g stroke-width="1.263"><path d="M595.62 553.85c22.173-17.896 34.461-41.001 34.897-69.547.22-14.429-2.12-28.883-2.237-43.334-.09-11.238.07-22.818 2.61-33.662 4.25-18.146 22.11-30.2 40.753-29.24 1.915.099 3.72 2.337 6.542 4.231-3.393 1.396-5.191 2.345-7.105 2.89-17.76 5.072-20.88 15.349-20.139 30.899.863 18.06 2.263 36.098 3.555 54.136 1.025 14.303-2.398 28.19-9.163 40.024-6.408 11.209-16.792 20.153-25.483 30.044-1.749 1.99-3.748 3.763-5.462 6.559 28.724-9.11 54.822-5.63 77.65 14.597l11.138-11.923c3.202 2.5 3.898 4.585.915 7.368-9.212 8.59-18.318 17.292-27.887 26.349-3.947-2.8-8.787-6.827-14.157-9.94-23.872-13.836-48.635-12.539-73.45-3.118-8.554 3.247-16.514 8.037-24.847 11.903-1.475.684-3.453.285-5.199.386.7-1.516 1.006-3.504 2.163-4.475 10.692-8.96 20.917-18.373 27.054-31.163 2.322-4.838 4.057-10.197 4.817-15.497 1.782-12.42-8.169-22.799-20.858-22.494-1.88.046-3.763.007-6.955.007 3.106-5.441 5.764-9.896 11.85-10.354 3.961-.298 7.99-.079 11.962.228 4.711.365 5.572-2.312 4.555-5.855-1.15-4.007-2.584-8.04-4.652-11.624-.83-1.439-3.618-1.946-5.62-2.478-11.237-2.987-12.813-2.719-22.547 3.675l-3.08-3.257c8.354-11.385 18.324-17.052 32.892-13.14-2.267-23.82.903-45.312 16.547-63.535l-1.273-1.052c-3.27 1.045-6.569 3.036-9.807 2.943-7.452-.214-14.898-1.287-22.3-2.33-3.28-.462-6.399-2.059-9.678-2.513-10.207-1.416-16.897 5.202-16.419 15.58.098 2.117-1.071 4.291-2.305 6.245-5.112-8.541-1.906-25.1 5.556-33.59 7.394-8.412 20.083-11.403 31.092-7.24 4.115 1.557 8.11 3.434 12.238 4.946 13.785 5.048 22.38 3.384 35.85-6.907l2.551 3.086c-5.56 8.19-11.632 15.439-15.796 23.654-6.725 13.27-4.889 27.869-4.177 42.136.826 16.56 2.174 33.113 2.427 49.682.315 20.58-8.908 38.01-20.278 55.318-.317 1.172-.229 1.685-.141 2.197l1.402-.811zM422.85 164.09c7.778 3.298 15.089 6.426 24.421 10.418 5.07-5.531 10.978-12.005 16.922-18.445 1.425-1.544 2.726-3.612 4.52-4.296 1.975-.752 4.452-.186 6.71-.195-.01 2.093.874 5.018-.175 6.147-8.153 8.78-16.386 17.545-25.346 25.463-1.716 1.516-7.236.18-10.178-1.386-14.458-7.699-29.525-13.198-45.999-13.82-29.12-1.098-56.773 18.003-69.362 47.58-12.556 29.5-5.086 67.287 18.004 87.609 18.95 16.677 41.431 20.057 65.601 15.413 18.823-3.617 34-12.806 44.575-29.076 16.318-25.104 10.78-53.73-14.66-72.628-20.856-15.492-46.018-13.068-63.14 6.734-7.576 8.76-9.144 20.729-3.784 30.554 6.073 11.13 15.22 17.784 28.373 17.306 8.395-.306 17.048-7.244 18.324-15.58.543-3.55-2.053-7.52-2.916-11.367-.48-2.137-.327-4.415-.46-6.63 2.188-.031 4.945-.94 6.47.05 9.44 6.123 9.497 21.862.398 31.718-15.165 16.426-38.091 14.868-53.615-3.642-13.986-16.678-11.61-39.187 5.736-54.35 22.358-19.543 53.864-18.777 75.402 1.832 27.566 26.38 30.095 56.876 7.023 87.174-14.683 19.282-35.316 27.931-58.561 28.641-25.373.775-50.892.018-76.214-1.869-19.661-1.465-38.829-6.658-56.118-16.954-5.073-3.02-5.68-5.966-1.5-9.895 25.548-24.01 38.862-55.26 51.742-86.79 14.556-35.632 51.794-65.79 100.67-51.8 2.223.637 4.446 1.275 7.137 2.083m-116.76 93.318c-9.173 16.643-18.777 32.992-33.03 47.07 24.403 11.516 49.412 14.944 75.284 15.347-25.264-15.141-36.095-38.603-40.45-66.48a99.28 99.28 0 00-1.804 4.063z" fill="#999"/><path d="M424.28 744.37c.675 1.366 1.026 2.42 1.708 3.173 7.558 8.335 7.755 10.41.344 21.406-2.907 4.314-6.727 8.037-10.299 11.874-2.89 3.105-6.153 3.455-9.39.387-2.616-2.48-6.3-4.986-8.404-1.278-1.248 2.196 1.168 6.628 2.307 9.927.336.974 2.385 1.297 2.862 2.294.933 1.953 2.3 4.486 1.745 6.222-2.184 6.833-15.946 10.46-21.53 6.011-6.211 8.562-21.912 9.343-29.393 1.463-6.667 3.02-20.402-3.657-21.479-10.793-.262-1.74 1.402-3.916 2.515-5.68 1.176-1.867 3.14-3.312 3.994-5.275.454-1.043-.37-3.123-1.292-4.09-.495-.517-2.706-.061-3.656.628-6.563 4.76-8.231 4.9-13.717-.93-5.02-5.336-9.988-10.813-14.232-16.762-3.958-5.548-2.882-8.939 2.648-13.162 6.03-4.607 6.218-8.396.552-13.601-4.273-3.926-8.642-7.746-13.742-12.305l7.97.662c-1.856-4.918-3.63-9.47-5.295-14.062-4.34-11.979-1.107-22.339 7.16-31.375 3.39-3.705 7.102-7.196 11.052-10.293 8.357-6.549 14.946-14.005 16.322-25.127.235-1.893 2.361-3.553 3.614-5.32 1.566 1.469 3.719 2.662 4.567 4.468 1.447 3.08 2.073 6.543 3.15 10.204 4.596-3.312 7.968-6.74 7.497-12.523-.467-5.74 1.168-9.118 7.336-6.457.506-6.302.824-12.338 1.602-18.314.17-1.3 1.801-2.898 3.116-3.376.81-.294 3.042 1.032 3.37 2.04 4.622 14.268 16.687 22.803 25.611 33.75 1.921 2.356 3.236 5.206 5.174 8.396 1.24-3.963 2.057-7.414 3.449-10.615.538-1.24 2.345-2.584 3.63-2.643 1.123-.052 3.233 1.526 3.357 2.568 2.066 17.385 12.834 30.26 22.511 43.641 5.999 8.295 8.76 17.108 5.72 28.076l7.18-2.573.683.824c-5.712 5.962-11.761 11.647-16.97 18.02-2.115 2.585-2.4 6.666-3.348 10.52m-65.095-106.62c.945 2.681 1.89 5.364 3.183 9.14-.37 4.147-.555 8.32-1.156 12.433-.69 4.722.479 8.466 5.07 10.305 1.574.63 3.849.648 5.317-.062.763-.369 1.025-3.13.552-4.47-2.365-6.697-5.05-13.28-7.614-20.758-1.085-2.531-2.17-5.063-3.425-8.723-.616.392-1.232.785-1.927 2.135m8.538-13.854l-3.144-6.714c-2.193 11.518-.51 18.861 4.914 30.107 2.968 6.155 5.339 12.776 6.754 19.447 1.213 5.717-2.692 8.524-8.414 7.225-9.07-2.058-12.713-8.588-9.776-18.182 1.756-5.738 1.04-10.912-.963-14.559-2.48 4.068-5.668 8.25-7.702 12.932-1.936 4.457-3.83 9.477-3.665 14.178.27 7.726 3.714 14.398 10.345 19.312 5.592 4.143 6.822 10.466 4.445 17.614-1.745 5.248-4.176 10.084-10.613 9.953-13.584-.278-25.296-8.89-20.899-24.806 1.94-7.023 5.29-13.653 7.94-20.485 3.305-8.518 5.137-17.075-.04-27.338-1.632 14.663-10.1 22.956-19.804 30.806-8.656 7.004-18.087 14.834-16.108 27.45 1.386 8.83 5.83 17.2 9.14 25.684.423 1.081 2.16 1.874 3.455 2.355 17.674 6.57 35.345 13.153 53.117 19.45 2.022.717 4.934.351 6.951-.57 18.281-8.342 36.513-16.802 54.585-25.585 2.194-1.066 4.075-4.012 4.88-6.484 3.448-10.582-1.509-19.012-7.247-27.443-6.33-9.302-12.159-18.967-17.764-28.727-1.72-2.994-1.986-6.822-3.281-11.61-4.47 11.354-5.281 20.777.684 30.283 1.886 3.005 2.352 7.147 2.664 10.837.476 5.634-1.405 10.655-7.197 12.612-4.94 1.67-10.078 1.74-13.762-3.062-3.062-3.99-3.097-11.945.517-15.956 12.254-13.599 7.22-29.932-4.699-40.286-5.74-4.987-10.013-11.663-15.314-18.438m59.735 131.7l-8.822-12.741c-9.554 10.054-19.06 20.056-28.655 30.155-5.609-3.477-10.897-6.467-15.851-9.935-2.902-2.03-5.075-1.93-7.848.1-5.019 3.672-10.265 7.034-15.473 10.564l-29.909-27.176c-4.102 2.65-7.86 4.673-11.058 7.362-1.116.938-1.814 4.255-1.066 5.23 5.897 7.692 12.19 15.08 19.34 23.747 2.142-2.962 2.888-5.145 4.175-5.531 2.555-.768 5.897-1.503 7.985-.435 1.711.875 3.12 4.552 2.776 6.683-.449 2.781-2.901 5.193-4.21 7.9-.716 1.48-1.677 4.254-1.117 4.71 3.695 3.005 7.773 5.538 12.418 8.696.73-3.34.641-5.278 1.532-6.508 1.744-2.409 4.537-6.555 6.007-6.208 4.782 1.127 3.575 4.99 1.892 8.5-1.112 2.319-2.192 5.21 1.654 5.938 5.926 1.123 11.973 2.02 17.79-1.747-.532-1.493-1.229-2.628-1.291-3.796-.141-2.645-.247-5.36.246-7.928.146-.765 3.13-1.898 3.445-1.566 1.743 1.842 3.763 3.893 4.396 6.224 1.756 6.465 3.436 7.44 8.983 3.924 2.39-1.515 4.607-3.3 7.432-5.345-1.814-1.6-3.022-2.671-4.236-3.737-4.658-4.089-6.428-12.107-2.771-15.875 4.442-4.577 9.078-2.388 13.478.909 1.046.784 3.635 1.269 4.203.663 6.085-6.494 13.46-12.188 14.557-22.778m-76.405-66.897l-10.694-17.621c-2.47 6.63-6.072 13.678-7.647 21.152-2.257 10.71 1.377 15.689 12.546 18.419 2.822.69 7.443-.323 9.279-2.338 5.08-5.575 3.41-14.28-3.484-19.612m39.09-2.446c-1.924 3.905-2.49 8.214 1.304 10.762 2.091 1.404 7.028 1.707 8.445.281 2.422-2.436 4.517-6.779 4.156-10.034-.56-5.06-3.293-9.88-5.166-14.967-3.202 5.071-5.741 9.093-8.74 13.958z" fill="gray"/></g><g fill="#999" stroke-width="1.263"><path d="M597.09 744.42c.161-1.137.07-1.835.315-2.382 6.079-13.587-1.484-20.684-11.832-27.871-21.809-15.146-41.935-32.29-56.412-55.071-1.729-2.722-3.45-5.449-5.723-9.04 1.79.633 3.109.692 3.743 1.382 20.189 21.947 46.35 34.92 72.27 48.269 5.037 2.593 9.9 5.543 15.028 7.93 4.185 1.948 5.23 4.538 4.25 9.056-1.369 6.316-2.542 12.823-2.482 19.237.03 3.132 2.909 6.316 4.77 9.308.599.964 2.05 1.414 3.137 2.056 9.53 5.624 19.495 4.076 26.23-4.83 1.777-2.347 2.22-6.286 2.022-9.415-.328-5.198-1.339-10.42-2.68-15.466-1.363-5.136-.002-8.112 4.805-10.603 16.929-8.773 34.051-17.28 50.342-27.141 12.631-7.646 24.129-17.163 36.689-26.253-1.11 2.309-1.976 4.728-3.33 6.835-12.47 19.403-29.487 34.328-47.636 48.123-6.19 4.704-12.316 9.495-18.585 14.092-3.353 2.459-4.16 5.48-3.155 9.348.684 2.636.635 5.535 1.678 7.993 3.745 8.83.024 14.744-6.801 20.009-9.943 7.67-19.651 15.643-29.95 23.879-11.233-9.385-21.997-18.361-32.743-27.36-3.632-3.042-5.843-6.618-3.952-12.084zM112.9 442.67c5.352-3.546 10.063-7.642 15.54-9.73 6.622-2.525 9.5-8.7 5.297-14.702-.823-1.176-1.939-2.146-3.002-3.301l7.766-14.081c2.14 4.418 4.038 7.85 5.431 11.475.486 1.263-.247 3.01-.471 4.529-.655 4.427-1.53 8.837-1.823 13.286-.053.803 2.133 2.252 3.48 2.569 11.304 2.657 19.519 11.296 21.686 22.712.51 2.69 1.476 7.177 2.898 7.457 4.15.817 10.09 1.597 12.678-.655 5.002-4.352 8.24-1.84 12.207.302 1.81.976 3.59 2.01 5.44 3.049-5.419 5.804-10.972 6.903-17.388 4.904-3.48-1.084-7.51-.25-11.224-.767-5.34-.743-4.698 4.347-6.985 6.558-6.122 5.915-12.294 11.798-18.758 17.329-2.704 2.313-4.642 4.125-4.308 8.22.544 6.69.156 13.454.15 20.188-.007 6.868-.435 13.48 3.986 19.872 2.046 2.96 1.202 8.404.606 12.57-.642 4.486-4.548 7.853-1.837 13.712 1.287 2.78-3.33 8.291-5.773 13.666-2.612-4.897-4.756-8.667-6.606-12.576-.421-.888-.237-2.582.369-3.358 5.754-7.365 1.773-15.818 2.657-23.702.128-1.148-1.664-2.775-2.898-3.772-16.984-13.73-18.227-30.078-2.617-45.02 4.423-4.232 6.38-8.295 5.709-14.133-.327-2.847-.057-5.763-.057-8.72h-17.327c7.814 4.566 7.834 10.95 5.09 17.714-.714 1.763-3.438 3.756-5.303 3.82-6.52.226-12.498-8.251-10.89-14.736 1.716-6.93 1.482-7.569-5.345-7.251-4.406.205-8.751 1.607-13.136 2.405-1.206.22-2.676.662-3.645.203-3.7-1.755-7.246-3.837-11.883-6.358 4.618-2.533 8.286-4.646 12.068-6.53.757-.378 1.99-.023 2.937.237 5.589 1.53 11.158 3.13 15.507 4.36 3.68-8.315 6.576-14.86 9.773-21.743m3.737 19.324l18.078 1.94v-20.003c-10.246.942-15.16 5.645-18.078 18.063m26.894-18.112c-.654.325-1.873.64-1.879.977-.114 6.198-.084 12.398-.084 18.696 4.7 0 8.516.371 12.183-.206 1.25-.196 3.247-3.017 2.986-4.227-1.494-6.946-5.676-11.974-13.207-15.24m8.58 25.809h-10.06v15.42c4.962-4.308 8.8-7.403 12.34-10.808 1.924-1.85 2.658-4.042-2.28-4.612m-16.764 53.396v-21.47c-7.255 7.912-7.884 17.354-2.556 23.409.236.268 1.769-.605 2.556-1.94zM201.77 382.56c-9.014 9.008-17.293 19.371-32.232 17.22-1.808-.26-3.837 1.223-5.799 1.767-3.663 1.016-7.352 1.937-11.552 2.003 7.381-5.584 12.628-12.23 15.536-20.732.295-.86 2.457-1.556 3.738-1.531 10.035.193 20.065.58 30.309 1.272zM79.519 388.92c-2.526-2.022-4.737-3.704-6.947-5.387l.501-2.077c10.77 0 21.54-.074 32.304.124.986.018 2.432 1.6 2.828 2.746 2.715 7.84 7.593 13.85 14.813 18.021l-.473 1.76c-3.708-.843-7.441-1.591-11.113-2.572-1.558-.416-3.271-2.223-4.427-1.857-9.234 2.919-15.947-2.73-23.17-6.509-1.582-.828-2.68-2.582-4.316-4.25zM122.3 385.62c-4.546.742-6.45-.42-5.89-4.926.426-3.426.084-6.947.084-11.472 7.348 6.6 14.271 7.891 20.38-.246 10.584 7.161 10.584 7.161 20.701.694v15.945c-11.74 0-23.225 0-35.275.005zM595.39 553.55c-.233.57-.7.84-1.167 1.111-.088-.513-.176-1.025.085-1.761.515-.032.68.16 1.082.65z"/></g><g stroke-width="1.263"><path d="M367.9 624.33c5.12 6.343 9.392 13.019 15.132 18.006 11.919 10.355 16.953 26.687 4.699 40.286-3.614 4.01-3.58 11.965-.518 15.956 3.684 4.801 8.822 4.732 13.762 3.062 5.792-1.957 7.674-6.978 7.197-12.612-.312-3.69-.778-7.831-2.663-10.837-5.965-9.506-5.155-18.929-.685-30.284 1.295 4.789 1.562 8.617 3.282 11.611 5.606 9.76 11.434 19.425 17.764 28.727 5.737 8.432 10.695 16.862 7.247 27.443-.805 2.472-2.686 5.418-4.88 6.484-18.072 8.783-36.304 17.242-54.585 25.586-2.017.92-4.93 1.286-6.952.57-17.772-6.298-35.443-12.88-53.117-19.45-1.294-.482-3.032-1.275-3.454-2.356-3.311-8.484-7.755-16.854-9.14-25.684-1.98-12.616 7.451-20.446 16.108-27.45 9.703-7.85 18.17-16.144 19.804-30.806 5.177 10.263 3.345 18.82.04 27.338-2.65 6.832-6 13.462-7.94 20.485-4.397 15.916 7.315 24.528 20.899 24.806 6.436.132 8.868-4.705 10.613-9.953 2.377-7.148 1.147-13.47-4.445-17.614-6.632-4.913-10.075-11.585-10.345-19.312-.165-4.7 1.728-9.72 3.664-14.178 2.034-4.683 5.222-8.865 7.702-12.932 2.004 3.647 2.72 8.822.963 14.56-2.937 9.593.707 16.123 9.777 18.181 5.722 1.299 9.627-1.508 8.414-7.225-1.416-6.67-3.786-13.292-6.754-19.446-5.425-11.246-7.107-18.589-4.914-30.107 1.323 2.826 2.233 4.77 3.325 7.145z" fill="#b3b3b3"/><path d="M427.63 756.06c-1.274 10.127-8.65 15.821-14.734 22.315-.568.606-3.157.121-4.204-.663-4.4-3.297-9.035-5.486-13.478-.909-3.657 3.769-1.886 11.786 2.772 15.875 1.213 1.066 2.422 2.137 4.235 3.737-2.824 2.045-5.042 3.83-7.432 5.345-5.546 3.516-7.226 2.541-8.982-3.924-.633-2.33-2.653-4.382-4.397-6.223-.314-.333-3.298.8-3.445 1.565-.492 2.568-.386 5.283-.245 7.928.062 1.168.759 2.303 1.29 3.796-5.816 3.766-11.863 2.87-17.79 1.747-3.846-.728-2.766-3.62-1.654-5.939 1.683-3.509 2.89-7.372-1.892-8.499-1.47-.346-4.262 3.8-6.007 6.208-.89 1.23-.801 3.168-1.531 6.508-4.645-3.158-8.724-5.691-12.418-8.696-.56-.456.4-3.23 1.117-4.71 1.309-2.707 3.76-5.118 4.21-7.9.343-2.13-1.065-5.808-2.776-6.683-2.088-1.068-5.43-.333-7.986.435-1.286.386-2.033 2.569-4.174 5.531-7.15-8.667-13.444-16.055-19.34-23.747-.749-.975-.05-4.292 1.066-5.23 3.199-2.688 6.956-4.712 11.058-7.362l29.909 27.176c5.208-3.53 10.454-6.892 15.473-10.565 2.773-2.03 4.945-2.13 7.847-.099 4.955 3.468 10.242 6.459 15.851 9.935l28.655-30.155c3.003 4.336 5.913 8.539 9 13.203m-52.638 23.957c4.636-3.944 3.065-7.381-5.644-12.342-9.475 7.94-9.613 8.326-4.25 12.455l4.762-3.518c1.53 1.186 2.833 2.196 5.132 3.405z" fill="#b3b3b3"/><path d="M361.2 636.18c-.25.662-.584.76-1.426.735.109-.515.725-.907 1.426-.735z" fill="#111"/><path d="M374.5 779.92c-1.8-1.11-3.104-2.12-4.635-3.306l-4.76 3.519c-5.364-4.13-5.226-4.516 4.25-12.455 8.707 4.96 10.28 8.397 5.145 12.243z" fill="gray"/></g><g fill="#999"><path d="M28.722 359.791c10.598-6.337 95.142-47.624 165.457-90.894 18.08-11.125 30.897-40.083 29.82-62.842-1.605-33.93-14.134-35.606-12.896-58.909-5.9 12.101-12.526 21.886-10.16 48.08.658-8.267 8.109-22.646 12.09-10.243 10.187 54.932-39.953 78.683-49.896 78.706 45.338-51.432 22.88-104.82 42.374-118.893-6.446 1.518-25.17-4.594-29.125 28.754-4.359 50.96-15.45 56.227-29.494 69.36 15.989-17.187 21.983-43.809 23.607-75.94.606-12.002 4.342-15.742 10.978-20.657-16.022 2.341-27.878 11.285-30.109 24.29-5.912 34.458-10.179 42.044-23.982 52.852 21.07-29.118 12.804-53.933 9.94-62.999-.579 19.185-5.41 29.677-15.713 38.017 6.563-10.52 7.785-24.809 7.087-37.81-5.065 17.576-23.404 17.451-34.132 19.608-60.728 12.206-47.916 76.948-43.73 84.41 18.436-29.796 41.37-24.926 47.782-19.213-5.505 22.281-6.445 40.938 28.039 43.381l-63.941 40.91-.102-25.79z"/><path d="M27.665 359.366c10.598-6.337 95.142-47.624 165.457-90.894 18.08-11.125 30.897-40.083 29.82-62.842-1.606-33.93-14.134-35.607-12.896-58.909-5.9 12.1-12.526 21.886-10.16 48.08.658-8.268 8.108-22.646 12.09-10.244 10.187 54.933-39.953 78.684-49.896 78.707 45.338-51.432 22.88-104.82 42.373-118.893-6.445 1.518-25.168-4.594-29.124 28.754-4.359 50.96-15.45 56.227-29.494 69.36 15.989-17.187 21.983-43.81 23.607-75.94.606-12.003 4.342-15.742 10.978-20.657-16.022 2.341-27.878 11.285-30.11 24.29-5.91 34.458-10.178 42.043-23.982 52.852 21.072-29.118 12.804-53.933 9.941-62.999-.579 19.185-5.41 29.677-15.713 38.017 6.563-10.521 7.785-24.81 7.087-37.81-5.065 17.576-23.404 17.451-34.132 19.608-60.728 12.206-47.916 76.948-43.73 84.41 18.436-29.796 41.37-24.926 47.782-19.213-5.505 22.281-6.446 40.937 28.039 43.381l-63.941 40.91-.102-25.791z" stroke="#000" stroke-width=".38302"/></g><g fill="#999"><path d="M51.47 608.079c-2.073.341-3.804 1.236-5.3 2.744-.93.942-1.142 1.236-1.731 2.426-.942 1.896-1.496 4.345-1.496 6.594 0 .565-.011.589-.33.589-.6 0-3.25.718-4.262 1.142-3.45 1.484-5.452 3.58-6.253 6.583-.318 1.166-.353 3.662-.07 4.934 1.294 5.841 6.217 9.574 13.73 10.434 1.731.188 6.17.07 7.76-.212l1.201-.224 6.866 6.312c3.78 3.462 10.41 9.55 14.743 13.53 4.346 3.98 8.067 7.408 8.29 7.608.39.388.39.388.26.966l-.141.577-2.203.33c-9.68 1.424-17.134 3.403-20.678 5.499-1.06.636-2.238 1.754-2.638 2.52-.436.824-.448 2.202-.035 3.061 1.071 2.155 4.698 4.004 11.257 5.712 2.344.612 7.56 1.648 10.775 2.143l2.58.389.07.647c.224 2.214.471 4.028.718 5.417 1.861 10.128 6.725 19.501 13.99 26.932.825.848.825.86.6 1.083-.2.177-11.834 10.74-40.073 36.33-4.05 3.673-5.405 4.828-5.593 4.804-.142-.012-.766-.118-1.378-.212-1.59-.259-5.335-.341-6.972-.177-7.089.766-11.87 4.287-13.365 9.845-.283 1.06-.307 1.39-.318 3.297-.012 1.873.023 2.226.259 3.039 1.236 4.263 5.087 6.983 10.68 7.524.39.036.377 0 .648 2.073.766 5.923 4.216 9.692 9.174 10.01 3.768.247 6.818-.872 9.373-3.439 2.485-2.485 4.134-6.23 4.829-10.928.2-1.307.294-4.722.188-6.5l-.047-.813 18.182-16.51 18.182-16.498.07 4.663c.06 4.063.095 4.828.319 6.006.789 4.24 2.284 7.678 4.793 11.022 4.062 5.394 10.21 8.997 16.875 9.88 1.966.26 18.347.26 20.337 0 10.292-1.354 18.912-9.173 21.303-19.312.577-2.497.67-3.721.67-8.762l-.011-4.651.26.247c.27.236 27.838 25.53 34.09 31.277l3.333 3.062-.094.66c-.13 1.06-.082 5.381.082 6.606.672 4.981 2.391 8.796 5.1 11.375 1.495 1.413 3.226 2.38 5.216 2.885 1.425.366 4.263.4 5.535.06 2.214-.59 4.074-1.897 5.346-3.757 1.084-1.59 1.979-4.228 2.261-6.7l.142-1.249.871-.082c.483-.048 1.425-.2 2.096-.354 5.97-1.354 9.138-5.57 8.538-11.399-.53-5.275-3.804-9.162-9.244-10.987-3.262-1.083-7.643-1.401-11.576-.812l-1.343.2-.365-.342c-.212-.2-10.492-9.644-22.869-21.008-12.365-11.352-22.492-20.679-22.492-20.726 0-.035.671-.812 1.496-1.707 1.86-2.038 3.003-3.439 4.392-5.406 2.932-4.133 5.382-8.996 6.971-13.836 1.19-3.65 2.097-8.067 2.367-11.588l.083-1.166 2.532-.4c7.748-1.19 14.543-2.909 17.97-4.557 2.273-1.096 3.533-2.108 4.145-3.357.424-.883.448-2.049.035-2.873-1.33-2.72-6.323-4.887-15.615-6.795-2.331-.47-6.924-1.272-8.914-1.542-.824-.118-1.036-.177-1.025-.33 0-.141 27.65-25.354 30.524-27.839l.506-.435 1.366.223c7.266 1.249 14.379-.33 18.123-4.027 2.356-2.308 3.522-5.146 3.522-8.514 0-5.146-3.498-8.714-9.833-10.068-.577-.118-1.084-.224-1.12-.224s-.07-.542-.093-1.213c-.177-5.888-2.85-9.739-7.643-10.987-1.578-.412-4.133-.448-5.782-.07-5.075 1.153-8.702 5.192-10.186 11.328-.577 2.355-.707 3.615-.719 6.641v2.815l-5.664 5.134c-17.605 15.992-21.88 19.855-22.01 19.878-.07.012-.34-.247-.6-.589-.871-1.13-2.85-3.309-4.25-4.675-10.034-9.762-23.082-15.073-37.013-15.073-12.765 0-24.588 4.298-34.339 12.47-1.554 1.296-4.616 4.334-5.97 5.936l-1.19 1.378-.659-.625c-.365-.341-6.453-5.935-13.53-12.435l-12.86-11.811.07-2.085c.236-6.547-1.507-12.129-4.84-15.509-2.413-2.437-5.287-3.603-8.855-3.568-.824.012-1.778.06-2.108.118zm4.84 2.697c1.73.459 3.096 1.283 4.427 2.673.954 1 1.342 1.566 2.084 3.05 1.755 3.486 2.356 8.078 1.72 13.012l-.071.542 14.084 12.942c7.749 7.113 14.072 12.989 14.06 13.06-.023.058-.6.965-1.283 2.001-1.978 2.968-3.497 5.806-4.816 8.974l-.542 1.319-14.225-13.06c-7.82-7.183-14.685-13.495-15.262-14.013l-1.036-.943-1.46.283c-8.114 1.637-15.745-.542-18.465-5.287-.189-.33-.507-1.096-.719-1.708-.318-.942-.388-1.342-.435-2.532-.06-1.648.106-2.484.765-3.733 1.307-2.496 4.934-4.263 9.456-4.628l1.001-.082v-2.485c0-2.19.035-2.626.27-3.556.872-3.486 2.992-5.558 6.207-6.065 1.071-.165 3.156-.047 4.24.236zm165.582.636c3.58 1.154 5.44 4.698 5.193 9.891-.047.848-.094 1.65-.106 1.779-.036.212.059.247.907.306 3.78.294 7.006 1.613 8.702 3.544 2.025 2.297 2.108 6.077.224 9.303-1.343 2.285-4.157 4.098-7.678 4.935-3.45.824-8.008.753-11.552-.189l-.648-.165-.412.389c-.224.212-4.204 3.827-8.832 8.02-4.628 4.203-11.447 10.386-15.156 13.742s-6.771 6.123-6.807 6.135-.33-.636-.647-1.448c-1.237-3.074-3.18-6.771-4.981-9.468-.648-.978-.907-1.46-.837-1.566.06-.083 4.852-4.452 10.646-9.704 19.277-17.487 18.076-16.38 18.064-16.71-.011-.165-.059-1.06-.13-2.002-.482-7.1 1.92-13.448 5.971-15.827 1.755-1.036 3.18-1.378 5.476-1.319 1.39.036 1.802.083 2.603.354zM138.565 636.8c5.746.365 10.504 1.425 15.78 3.497 8.584 3.38 16.239 9.232 21.856 16.698.954 1.26 1.73 2.426 1.672 2.485-.035.024-19.065.036-42.288.024l-42.228-.036 1.036-1.46c3.05-4.263 7.054-8.337 11.199-11.399 9.503-7.018 21.35-10.54 32.973-9.81zm49.506 38.401c7.254 1.107 12.553 2.261 16.357 3.592 1.448.506 3.957 1.707 4.263 2.049l.212.235H62.327l.412-.306c.624-.47 2.85-1.519 4.228-1.99 3.815-1.319 9.232-2.508 16.25-3.592l2.297-.353 50.507.07c49.648.06 50.543.06 52.05.295zm-104.194 9.08a67.069 67.069 0 00-.141 2.65l-.083 1.907-.306-.06c-.165-.023-1.307-.211-2.544-.411-7.195-1.154-13.33-2.744-16.392-4.24l-1.154-.553 20.69-.024zm101.05-.413c.059.189.094 2.179.094 4.452 0 3.297-.047 4.451-.212 5.77-1.072 8.208-3.615 15.097-8.031 21.727-11.117 16.674-31.207 24.976-50.884 21.008-17.394-3.497-31.537-16.015-37.189-32.914-1.119-3.356-1.92-7.23-2.32-11.234-.165-1.649-.2-6.324-.059-7.984l.094-1.143h98.424zm22.786-.13c-1.33.931-6.17 2.462-11.152 3.522-2.296.494-8.773 1.601-8.902 1.519-.047-.024-.083-.718-.094-1.543a72.582 72.582 0 00-.083-2.602l-.082-1.084h10.292c9.35 0 10.257.012 10.021.189zm-30.558 49.813c3.744 3.439 8.502 7.808 10.574 9.715 23.941 21.986 29.44 27.015 29.546 27.003.071-.012.742-.13 1.484-.271 3.097-.577 6.289-.577 9.127 0 5.051 1.024 8.29 3.662 9.385 7.678.342 1.26.412 3.45.153 4.628-.4 1.802-1.39 3.274-2.897 4.298-1.754 1.19-4.428 1.873-7.3 1.873h-1.131l-.071 1.672c-.26 6.23-2.544 9.668-6.795 10.233-1.095.153-2.614 0-3.85-.377-4.146-1.272-6.925-5.393-7.879-11.705-.318-2.108-.235-6.63.142-7.96.035-.142-1.614-1.732-5.57-5.359-3.098-2.85-7.56-6.948-9.928-9.114-2.367-2.179-8.879-8.161-14.484-13.296-5.605-5.146-10.28-9.432-10.398-9.538-.153-.153-.283-.707-.495-2.214a107.746 107.746 0 00-1.425-7.678c-.224-1-.365-1.849-.318-1.896.047-.035.813-.612 1.684-1.26s1.99-1.53 2.473-1.955.942-.765 1.025-.753 3.203 2.838 6.948 6.276zm-74.92-5.417a67.55 67.55 0 002.073 1.649c.648.483 1.166.93 1.166.99s-.106.576-.247 1.141c-.754 3.215-1.637 8.114-1.873 10.399-.07.741-.188 1.472-.235 1.601-.059.141-2.344 2.296-5.076 4.77a4342.182 4342.182 0 00-7.642 6.935c-4.087 3.71-15.968 14.485-21.539 19.537l-4.98 4.522.07.66c.341 2.837.294 5.616-.118 8.019-1.107 6.347-4.216 10.386-8.702 11.316-2.862.59-5.24 0-6.972-1.73-1.79-1.802-2.744-4.782-2.79-8.644l-.012-1.472-1.296-.024c-7.16-.141-10.928-3.768-10.021-9.656.636-4.18 3.462-7.113 8.16-8.443 3.18-.907 6.972-.99 10.787-.236l1.496.306 1.154-1.048c.624-.577 4.027-3.674 7.56-6.877 18.524-16.793 27.097-24.565 32.266-29.275 3.145-2.862 5.747-5.205 5.794-5.205.036-.012.483.33.978.765zm6.654 4.758c1.496.989 5.193 2.802 7.808 3.839l1.73.683v8.914l-.258-.07c-.154-.048-.93-.354-1.743-.672-2.98-1.189-7.337-3.485-9.48-4.993-.648-.459-.707-.518-.671-.883.07-.636.565-3.297 1.036-5.488l.436-2.037.424.26c.235.14.553.34.718.447zm53.816-.06c0 .024.165.802.365 1.732s.542 2.685.754 3.921c.365 2.061.377 2.238.2 2.38-.66.494-3.674 2.201-5.322 3.026-1.65.812-4.946 2.213-5.853 2.484l-.271.071v-8.914l2.155-.848c2.214-.872 5.688-2.556 7.03-3.415.73-.46.942-.554.942-.436zm-39.814 5.889c2.779.695 6.206 1.26 8.667 1.413.589.035 1.39.094 1.802.13l.73.07v8.926h-.495c-2.873-.011-9.315-1.048-12.13-1.954l-.564-.189v-4.475c0-4.098.011-4.475.188-4.404.106.047.919.26 1.802.483zm27.214 4.05v4.464l-.377.13c-2.908.918-9.209 1.895-12.306 1.895h-.86v-8.926l1.39-.07c3.639-.2 7.09-.707 10.104-1.472.966-.248 1.825-.46 1.908-.46.106-.023.141.942.141 4.44zm-42.276 1.332c2.991 1.801 8.302 4.25 10.28 4.745l.319.083v9.515l-.318-.13c-4.299-1.625-7.372-3.168-11.01-5.558l-1.626-1.048v-2.508c0-2.285.13-4.958.306-5.924.06-.377.07-.388.318-.224.141.095.919.566 1.731 1.049zm56.925 4.569l.012 3.827-1.766 1.083c-2.885 1.79-6.948 3.745-9.963 4.805l-.459.165v-9.504l.33-.07c1.978-.483 7.383-2.944 10.35-4.71l1.273-.754.106.671c.047.365.106 2.379.117 4.487zm-38.436 2.296a57.95 57.95 0 006.335.718l1.437.083v9.597l-.966-.059a55.606 55.606 0 01-11.305-1.813l-.918-.248v-9.48l1.848.448a69.67 69.67 0 003.569.754zm23.787 3.627v4.757l-.966.248c-3.697.965-7.148 1.495-11.246 1.743l-1.33.07v-9.644l1.86-.07c3.215-.142 6.96-.684 9.975-1.438a96.198 96.198 0 011.625-.4c.047-.012.082 2.131.082 4.734zm-43.124 1.06c6.807 4.274 14.285 6.865 22.646 7.866 3.144.377 8.973.377 12.094 0 7.83-.942 15.12-3.356 21.455-7.124 1.708-1.013 1.65-1.037 1.414.694-1.19 9.186-8.173 16.97-17.193 19.184-2.52.612-3.321.659-12.283.659-9.774 0-10.516-.07-13.79-1.119-3.52-1.142-6.735-3.167-9.397-5.935-3.273-3.391-5.346-7.513-6.076-12.023-.247-1.555-.4-3.062-.318-3.062.035 0 .683.389 1.448.86z"/><path d="M111.068 688.038c-5.559.742-10.363 4.263-12.777 9.327a16.21 16.21 0 00-1.355 4.298c-.212 1.19-.247 4.004-.058 5.146 1.118 7.042 6.323 12.412 13.365 13.801 1.567.307 4.546.271 6.147-.058 4.805-1.025 8.738-3.887 11.14-8.09.707-1.213 1.202-2.497 1.65-4.181.34-1.295.352-1.472.364-3.768.012-2.638-.082-3.262-.765-5.394-1.778-5.417-6.524-9.633-12.27-10.869-1.273-.27-4.193-.389-5.441-.212zM156.064 688.026c-6.5.825-11.988 5.476-13.79 11.717-.542 1.873-.683 3.086-.612 5.24.094 2.639.518 4.393 1.613 6.619 2.296 4.663 6.394 7.843 11.576 8.95 1.743.365 4.828.365 6.488-.012 3.415-.777 5.994-2.167 8.314-4.487 2.273-2.273 3.639-4.675 4.44-7.83.412-1.626.518-4.758.212-6.56-1.13-6.76-6.383-12.141-13.154-13.46-1.154-.224-3.933-.318-5.087-.177zM133.619 718.008c-3.84.824-6.16 4.875-4.934 8.585.918 2.732 3.403 4.533 6.288 4.545 1.86.012 3.403-.624 4.722-1.943s1.931-2.79 1.931-4.663c0-3.239-2.131-5.876-5.299-6.548-.954-.2-1.72-.2-2.708.024z"/></g><path d="M683.31 210.89c-10.072-15.108-21.997-25.381-35.473-30.498-6.768-2.599-14.322-4.532-23.044-5.922-12.59-1.995-97.275-7.595-106.88-8.24l-4.19-.281s1.632 4.15 31.263 51.125c-6.043 11.522-9.286 24.414-9.286 37.407 0 44.437 36.158 80.595 80.575 80.595 21.675 0 42.02-8.46 57.289-23.79 15.128-15.21 23.407-35.393 23.306-56.806-.087-15.128-4.875-30.598-13.557-43.591z" fill="gray" stroke="#999" stroke-width="6.224"/><path d="M683.31 210.89c-10.072-15.108-21.997-25.381-35.473-30.498-6.769-2.599-14.322-4.532-23.045-5.922-12.59-1.995-97.275-7.595-106.88-8.24l-4.19-.281s1.632 4.15 31.263 51.125c-6.043 11.522-9.286 24.414-9.286 37.407 0 44.437 36.158 80.595 80.575 80.595 21.675 0 42.02-8.46 57.289-23.79 15.128-15.21 23.407-35.393 23.306-56.806-.074-15.128-4.875-30.598-13.557-43.591" fill="#666"/><path d="M624.39 177.01c-13.174-2.095-106.84-8.219-106.82-8.219l30.337 48.103c-6.144 11.14-9.649 23.951-9.649 37.588 0 43.088 34.929 78.017 78.017 78.017 43.088 0 78.239-34.849 78.017-78.017-.058-14.967-4.835-29.773-13.114-42.16-8.5-12.772-19.681-23.992-34.245-29.532-7.292-2.78-14.846-4.552-22.541-5.781" fill="#999"/><g fill="gray"><path d="M539.2 254.48c0-12.993 3.304-25.845 9.528-37.125l.262-.504s-27.798-44.095-29.652-47.016c14.685.967 92.944 6.204 104.89 8.098 8.5 1.37 15.813 3.243 22.36 5.741 12.77 4.855 24.152 14.665 33.82 29.168 8.28 12.43 12.893 27.214 12.953 41.637v.383c0 20.345-7.917 39.482-22.3 53.945-14.603 14.665-34.062 22.742-54.79 22.742-42.483 0-77.07-34.567-77.07-77.07zm7.635-37.528a79.02 79.02 0 00-9.508 37.528c0 43.531 35.413 78.964 78.944 78.964 21.232 0 41.174-8.28 56.12-23.306 14.827-14.906 22.945-34.667 22.844-55.657-.088-14.806-4.775-29.954-13.275-42.685-9.89-14.826-21.554-24.878-34.688-29.873-6.688-2.558-14.121-4.452-22.742-5.842-12.53-1.994-97.134-7.594-106.74-8.218l-1.632-.101s.604 1.51 30.679 49.191"/><path d="M563.7 237.2a157.998 157.998 0 01-9.75-5.036 29.698 29.698 0 00-.302 4.25c0 14.423 10.455 26.106 23.387 26.106 9.024 0 16.84-5.7 20.728-14.06-10.676-1.954-22.34-5.72-34.063-11.26M669.13 237.2a157.94 157.94 0 009.75-5.036c.201 1.39.302 2.82.302 4.25 0 14.423-10.455 26.106-23.387 26.106-9.024 0-16.84-5.7-20.748-14.06 10.676-1.954 22.36-5.72 34.083-11.26M621.81 255.13c0 1.128-2.417 2.034-5.399 2.034-2.98 0-5.398-.906-5.398-2.034 0-1.128 2.417-2.035 5.398-2.035 2.982 0 5.399.907 5.399 2.035M660.13 274.99s6.345 13.678 7.856 16.941c-3.646-1.33-28.242-10.293-28.242-10.293s.927 29.47 1.067 34.103c-3.022-3.606-24.394-29.209-24.394-29.209s-21.373 25.603-24.394 29.209c.146-4.633 1.067-34.103 1.067-34.103s-24.596 8.964-28.262 10.293c1.531-3.263 7.876-16.941 7.876-16.941l-1.692-.786-9.79 21.05s27.516-10.052 29.893-10.898c-.087 2.559-1.149 36.762-1.149 36.762s25.08-30.034 26.45-31.666c1.349 1.632 26.448 31.666 26.448 31.666l-1.168-36.762c2.377.846 29.913 10.898 29.913 10.898l-9.79-21.05-1.692.786"/></g></svg>